<svg xmlns="http://www.w3.org/2000/svg" version="1.1" xmlns:xlink="http://www.w3.org/1999/xlink" xmlns:svgjs="http://svgjs.dev/svgjs" width="1000" height="623" viewBox="0 0 1000 623"><g transform="matrix(1,0,0,1,-0.6060606060606233,0.2522267206477409)"><svg viewBox="0 0 396 247" data-background-color="#ffffff" preserveAspectRatio="xMidYMid meet" height="623" width="1000" xmlns="http://www.w3.org/2000/svg" xmlns:xlink="http://www.w3.org/1999/xlink"><g id="tight-bounds" transform="matrix(1,0,0,1,0.2400000000000091,-0.09999999999999432)"><svg viewBox="0 0 395.52 247.2" height="247.2" width="395.52"><g><svg></svg></g><g><svg viewBox="0 0 395.52 247.2" height="247.2" width="395.52"><g transform="matrix(1,0,0,1,75.54432,86.66443420813238)"><svg viewBox="0 0 244.43135999999998 73.87113158373525" height="73.87113158373525" width="244.43135999999998"><g><svg viewBox="0 0 465.6152304205755 140.71649379927985" height="73.87113158373525" width="244.43135999999998"><g><rect width="12.626824507702148" height="140.71649379927985" x="277.4858744180685" y="0" fill="#ffffff" opacity="1" stroke-width="0" stroke="transparent" fill-opacity="1" class="rect-r$-0" data-fill-palette-color="primary" rx="1%" id="r$-0" data-palette-color="#5f4634"></rect></g><g><rect width="12.626824507702148" height="140.71649379927985" x="306.6399561348049" y="0" fill="#ffffff" opacity="1" stroke-width="0" stroke="transparent" fill-opacity="1" class="rect-r$-1" data-fill-palette-color="primary" rx="1%" id="r$-1" data-palette-color="#5f4634"></rect></g><g transform="matrix(1,0,0,1,0,0.35004102935143067)"><svg viewBox="0 0 244.43136 140.01641174057698" height="140.01641174057698" width="244.43136"><g id="textblocktransform"><svg viewBox="0 0 244.43136 140.01641174057698" height="140.01641174057698" width="244.43136" id="textblock"><g><svg viewBox="0 0 244.43136 140.01641174057698" height="140.01641174057698" width="244.43136"><g transform="matrix(1,0,0,1,0,0)"><svg width="244.43136" viewBox="-0.1 -33.45 58.38845423709303 33.45" height="140.01641174057698" data-palette-color="#5f4634"><g transform="matrix(1,0,0,1,0,0)"><g><svg width="19.52563615806202" viewBox="3.16 -36.86 99.13000000000001 37.36" height="7.3583984375" data-palette-color="#5f4634" id="scriptelement" x="38.76281807903101" y="-7.3583984375"><path d="M18.7 0L3.16 0 3.16-36.36 17.72-36.36Q21.73-36.36 24.41-35.17 27.1-33.98 28.44-31.88 29.79-29.78 29.79-27.04L29.79-27.04Q29.79-24.91 28.94-23.3 28.09-21.7 26.61-20.68 25.12-19.66 23.22-19.23L23.22-19.23 23.22-18.87Q25.3-18.79 27.12-17.7 28.94-16.62 30.08-14.68 31.21-12.73 31.21-10.05L31.21-10.05Q31.21-7.16 29.79-4.89 28.36-2.63 25.57-1.31 22.78 0 18.7 0L18.7 0ZM10.85-15.94L10.85-6.29 17.12-6.29Q20.33-6.29 21.8-7.52 23.28-8.75 23.28-10.81L23.28-10.81Q23.28-12.32 22.55-13.48 21.82-14.63 20.48-15.29 19.14-15.94 17.29-15.94L17.29-15.94 10.85-15.94ZM10.85-30.15L10.85-21.15 16.55-21.15Q18.13-21.15 19.36-21.71 20.6-22.27 21.32-23.3 22.03-24.33 22.03-25.76L22.03-25.76Q22.03-27.73 20.64-28.94 19.25-30.15 16.69-30.15L16.69-30.15 10.85-30.15ZM68.29-23.63L68.29-23.63 60.51-23.63Q60.3-25.14 59.64-26.32 58.98-27.5 57.95-28.34 56.92-29.17 55.58-29.62 54.24-30.06 52.68-30.06L52.68-30.06Q49.86-30.06 47.76-28.67 45.67-27.27 44.51-24.62 43.36-21.96 43.36-18.18L43.36-18.18Q43.36-14.29 44.52-11.65 45.68-9 47.78-7.65 49.87-6.3 52.63-6.3L52.63-6.3Q54.17-6.3 55.49-6.71 56.82-7.12 57.85-7.91 58.88-8.7 59.56-9.84 60.24-10.97 60.51-12.43L60.51-12.43 68.29-12.39Q67.98-9.89 66.79-7.57 65.59-5.26 63.57-3.44 61.56-1.62 58.78-0.56 56 0.5 52.5 0.5L52.5 0.5Q47.64 0.5 43.81-1.7 39.98-3.91 37.77-8.08 35.56-12.25 35.56-18.18L35.56-18.18Q35.56-24.13 37.8-28.3 40.04-32.48 43.87-34.67 47.71-36.86 52.5-36.86L52.5-36.86Q55.66-36.86 58.37-35.97 61.08-35.09 63.17-33.39 65.27-31.69 66.59-29.24 67.91-26.79 68.29-23.63ZM83.55-30.02L72.42-30.02 72.42-36.36 102.29-36.36 102.29-30.02 91.15-30.02 91.15 0 83.55 0 83.55-30.02Z" opacity="1" transform="matrix(1,0,0,1,0,0)" fill="#ffffff" class="undefined-123" data-fill-palette-color="primary" id="lv-123"></path></svg></g></g><path d="M10.69-33.45L18.21-33.45Q20.68-33.45 22.68-32.71 24.68-31.98 26.09-30.71 27.49-29.44 28.25-27.75 29-26.05 29-24.15L29-24.15 29-9.3Q29-7.4 28.25-5.7 27.49-4 26.09-2.73 24.68-1.46 22.68-0.73 20.68 0 18.21 0L18.21 0 10.69 0Q8.23 0 6.23-0.73 4.22-1.46 2.82-2.73 1.42-4 0.66-5.7-0.1-7.4-0.1-9.3L-0.1-9.3-0.1-24.15Q-0.1-26.05 0.66-27.75 1.42-29.44 2.82-30.71 4.22-31.98 6.23-32.71 8.23-33.45 10.69-33.45L10.69-33.45ZM19.21-31.25L16.65-31.25 16.65-15.41 16.31-13.94 14.7-13.65 11.06-13.65 11.06-11.06 14.84-11.06 17.31-11.4 19.21-12.89 19.21-31.25Z" opacity="1" transform="matrix(1,0,0,1,0,0)" fill="#ffffff" class="wordmark-text-0" data-fill-palette-color="primary" id="text-0"></path></svg></g></svg></g></svg></g></svg></g><g transform="matrix(1,0,0,1,352.3212950605755,13.902359233885527)"><svg viewBox="0 0 113.29393536 112.91177533150879" height="112.91177533150879" width="113.29393536"><g><svg xmlns="http://www.w3.org/2000/svg" xmlns:xlink="http://www.w3.org/1999/xlink" version="1.1" x="0" y="0" viewBox="13.98 14.102 72.039 71.796" enable-background="new 0 0 100 100" xml:space="preserve" height="112.91177533150879" width="113.29393536" class="icon-icon-0" data-fill-palette-color="accent" id="icon-0"><g display="none" fill="#e65454" data-fill-palette-color="accent"><path display="inline" d="M85.982 35.924H73.987v5.133H26.013v-5.133H14.018v35.982h13.288l-4.295 13.992h53.975L72.69 71.906h13.292V35.924zM76.985 65.961h-6.116l-1.245-4.049H30.377l-1.245 4.049h-6.121v-7.994h53.975V65.961z" fill="#ffffff" data-fill-palette-color="accent"></path><rect x="32.008" y="14.102" display="inline" width="35.979" height="23.658" fill="#ffffff" data-fill-palette-color="accent"></rect></g><g fill="#e65454" data-fill-palette-color="accent"><path d="M73.041 56.455c0.332 0.023 0.664 0.049 0.998 0.049 6.613 0 11.98-5.361 11.98-11.979s-5.367-11.98-11.98-11.98c-0.334 0-0.666 0.023-0.998 0.051v-8.219H25.127v41.926h47.914V56.455zM74.039 36.541c4.41 0 7.988 3.58 7.988 7.984 0 4.402-3.578 7.986-7.988 7.986-0.338 0-0.666-0.059-0.998-0.102V36.643C73.373 36.598 73.701 36.541 74.039 36.541z" fill="#ffffff" data-fill-palette-color="accent"></path><rect x="13.98" y="71.631" width="71.871" height="3.992" fill="#ffffff" data-fill-palette-color="accent"></rect></g><g display="none" fill="#e65454" data-fill-palette-color="accent"><polygon display="inline" points="14.018,78.984 85.982,78.984 85.982,31.01 38.008,31.01 38.008,21.016 14.018,21.016  " fill="#ffffff" data-fill-palette-color="accent"></polygon></g><g display="none" fill="#e65454" data-fill-palette-color="accent"><polygon display="inline" points="85.982,26.013 14.018,26.013 50.002,50.002  " fill="#ffffff" data-fill-palette-color="accent"></polygon><polygon display="inline" points="53.329,54.989 50.002,57.207 46.676,54.989 14.018,33.22 14.018,73.987 85.982,73.987    85.982,33.22  " fill="#ffffff" data-fill-palette-color="accent"></polygon></g></svg></g></svg></g></svg></g></svg></g><path d="M186.959 80.664L186.959 24.377 385.405 24.377 385.405 222.823 186.959 222.823 186.959 166.536 193.588 166.536 193.588 216.194 378.776 216.194 378.776 31.006 193.588 31.006 193.588 80.664Z" fill="#ffffff" stroke="transparent" data-fill-palette-color="primary"></path></svg></g><defs></defs></svg><rect width="395.52" height="247.2" fill="none" stroke="none" visibility="hidden"></rect></g></svg></g></svg>